<svg width="1440" height="70" fill="none" xmlns="http://www.w3.org/2000/svg"><path d="M1420.23 35a2.737 2.737 0 01-1.68 2.526 2.735 2.735 0 01-2.98-.593c-.39-.382-.65-.87-.75-1.4-.11-.53-.05-1.08.15-1.58a2.74 2.74 0 012.53-1.688c.72.001 1.42.29 1.93.802.52.513.8 1.208.8 1.933zm32.27-2.734a2.74 2.74 0 00-2.53 1.688c-.2.5-.26 1.049-.15 1.58.1.53.36 1.017.75 1.4a2.735 2.735 0 002.98.593 2.737 2.737 0 001.68-2.526c0-.726-.28-1.421-.8-1.934a2.736 2.736 0 00-1.93-.801zm-17.5 0a2.74 2.74 0 00-2.53 1.688c-.2.5-.26 1.049-.15 1.58.1.53.36 1.017.75 1.4a2.735 2.735 0 002.98.593 2.737 2.737 0 001.68-2.526c0-.726-.28-1.421-.8-1.934a2.736 2.736 0 00-1.93-.801zM1365.23 35a2.737 2.737 0 01-1.68 2.526 2.735 2.735 0 01-2.98-.593c-.39-.382-.65-.87-.75-1.4-.11-.53-.05-1.08.15-1.58a2.74 2.74 0 012.53-1.688c.72.001 1.42.29 1.93.802.52.513.8 1.208.8 1.933zm32.27-2.734a2.74 2.74 0 00-2.53 1.688c-.2.5-.26 1.049-.15 1.58.1.53.36 1.017.75 1.4a2.735 2.735 0 002.98.593 2.737 2.737 0 001.68-2.526c0-.726-.28-1.421-.8-1.934a2.736 2.736 0 00-1.93-.801zm-17.5 0a2.74 2.74 0 00-2.53 1.688c-.2.5-.26 1.049-.15 1.58.1.53.36 1.017.75 1.4a2.735 2.735 0 002.98.593 2.737 2.737 0 001.68-2.526c0-.726-.28-1.421-.8-1.934a2.736 2.736 0 00-1.93-.801zM1312.23 35a2.737 2.737 0 01-1.68 2.526 2.735 2.735 0 01-2.98-.593c-.39-.382-.65-.87-.75-1.4-.11-.53-.05-1.08.15-1.58a2.74 2.74 0 012.53-1.688c.72.001 1.42.29 1.93.802.52.513.8 1.208.8 1.933zm32.27-2.734a2.74 2.74 0 00-2.53 1.688c-.2.5-.26 1.049-.15 1.58.1.53.36 1.017.75 1.4a2.735 2.735 0 002.98.593 2.737 2.737 0 001.68-2.526c0-.726-.28-1.421-.8-1.934a2.736 2.736 0 00-1.93-.801zm-17.5 0a2.74 2.74 0 00-2.53 1.688c-.2.5-.26 1.049-.15 1.58.1.53.36 1.017.75 1.4a2.735 2.735 0 002.98.593 2.737 2.737 0 001.68-2.526c0-.726-.28-1.421-.8-1.934a2.736 2.736 0 00-1.93-.801zM1257.23 35a2.737 2.737 0 01-1.68 2.526 2.735 2.735 0 01-2.98-.593c-.39-.382-.65-.87-.75-1.4-.11-.53-.05-1.08.15-1.58a2.74 2.74 0 012.53-1.688c.72.001 1.42.29 1.93.802.52.513.8 1.208.8 1.933zm32.27-2.734a2.74 2.74 0 00-2.53 1.688c-.2.5-.26 1.049-.15 1.58.1.53.36 1.017.75 1.4a2.735 2.735 0 002.98.593 2.737 2.737 0 001.68-2.526c0-.726-.28-1.421-.8-1.934a2.736 2.736 0 00-1.93-.801zm-17.5 0a2.74 2.74 0 00-2.53 1.688c-.2.5-.26 1.049-.15 1.58.1.53.36 1.017.75 1.4a2.735 2.735 0 002.98.593 2.737 2.737 0 001.68-2.526c0-.726-.28-1.421-.8-1.934a2.736 2.736 0 00-1.93-.801zM1204.23 35a2.737 2.737 0 01-1.68 2.526 2.735 2.735 0 01-2.98-.593c-.39-.382-.65-.87-.75-1.4-.11-.53-.05-1.08.15-1.58a2.74 2.74 0 012.53-1.688c.72.001 1.42.29 1.93.802.52.513.8 1.208.8 1.933zm32.27-2.734a2.74 2.74 0 00-2.53 1.688c-.2.5-.26 1.049-.15 1.58.1.53.36 1.017.75 1.4a2.735 2.735 0 002.98.593 2.737 2.737 0 001.68-2.526c0-.726-.28-1.421-.8-1.934a2.736 2.736 0 00-1.93-.801zm-17.5 0a2.74 2.74 0 00-2.53 1.688c-.2.5-.26 1.049-.15 1.58.1.53.36 1.017.75 1.4a2.735 2.735 0 002.98.593 2.737 2.737 0 001.68-2.526c0-.726-.28-1.421-.8-1.934a2.736 2.736 0 00-1.93-.801zM1149.23 35a2.737 2.737 0 01-1.68 2.526 2.735 2.735 0 01-2.98-.593c-.39-.382-.65-.87-.75-1.4-.11-.53-.05-1.08.15-1.58a2.74 2.74 0 012.53-1.688c.72.001 1.42.29 1.93.802.52.513.8 1.208.8 1.933zm32.27-2.734a2.74 2.74 0 00-2.53 1.688c-.2.5-.26 1.049-.15 1.58.1.53.36 1.017.75 1.4a2.735 2.735 0 002.98.593 2.737 2.737 0 001.68-2.526c0-.726-.28-1.421-.8-1.934a2.736 2.736 0 00-1.93-.801zm-17.5 0a2.74 2.74 0 00-2.53 1.688c-.2.5-.26 1.049-.15 1.58.1.53.36 1.017.75 1.4a2.735 2.735 0 002.98.593 2.737 2.737 0 001.68-2.526c0-.726-.28-1.421-.8-1.934a2.736 2.736 0 00-1.93-.801zM1096.23 35a2.737 2.737 0 01-1.68 2.526 2.735 2.735 0 01-2.98-.593c-.39-.382-.65-.87-.75-1.4-.11-.53-.05-1.08.15-1.58a2.74 2.74 0 012.53-1.688c.72.001 1.42.29 1.93.802.52.513.8 1.208.8 1.933zm32.27-2.734a2.74 2.74 0 00-2.53 1.688c-.2.5-.26 1.049-.15 1.58.1.53.36 1.017.75 1.4a2.735 2.735 0 002.98.593 2.737 2.737 0 001.68-2.526c0-.726-.28-1.421-.8-1.934a2.736 2.736 0 00-1.93-.801zm-17.5 0a2.74 2.74 0 00-2.53 1.688c-.2.5-.26 1.049-.15 1.58.1.53.36 1.017.75 1.4a2.735 2.735 0 002.98.593 2.737 2.737 0 001.68-2.526c0-.726-.28-1.421-.8-1.934a2.736 2.736 0 00-1.93-.801zM1041.23 35a2.737 2.737 0 01-1.68 2.526 2.735 2.735 0 01-2.98-.593c-.39-.382-.65-.87-.75-1.4-.11-.53-.05-1.08.15-1.58a2.74 2.74 0 012.53-1.688c.72.001 1.42.29 1.93.802.52.513.8 1.208.8 1.933zm32.27-2.734a2.74 2.74 0 00-2.53 1.688c-.2.5-.26 1.049-.15 1.58.1.53.36 1.017.75 1.4a2.735 2.735 0 002.98.593 2.737 2.737 0 001.68-2.526c0-.726-.28-1.421-.8-1.934a2.736 2.736 0 00-1.93-.801zm-17.5 0a2.74 2.74 0 00-2.53 1.688c-.2.5-.26 1.049-.15 1.58.1.53.36 1.017.75 1.4a2.735 2.735 0 002.98.593 2.737 2.737 0 001.68-2.526c0-.726-.28-1.421-.8-1.934a2.736 2.736 0 00-1.93-.801zM988.234 35a2.737 2.737 0 01-1.688 2.526 2.731 2.731 0 01-2.979-.593A2.735 2.735 0 11988.234 35zm32.266-2.734a2.74 2.74 0 00-2.53 1.688c-.2.5-.26 1.049-.15 1.58.1.53.36 1.017.75 1.4a2.735 2.735 0 002.98.593 2.737 2.737 0 001.68-2.526c0-.726-.28-1.421-.8-1.934a2.736 2.736 0 00-1.93-.801zm-17.5 0a2.74 2.74 0 00-2.53 1.688c-.2.5-.26 1.049-.15 1.58.1.53.36 1.017.75 1.4a2.735 2.735 0 002.98.593 2.737 2.737 0 001.68-2.526c0-.726-.28-1.421-.8-1.934a2.736 2.736 0 00-1.93-.801zM933.234 35a2.737 2.737 0 01-1.688 2.526 2.731 2.731 0 01-2.979-.593A2.735 2.735 0 11933.234 35zm32.266-2.734a2.735 2.735 0 100 5.469 2.735 2.735 0 000-5.47zm-17.5 0a2.735 2.735 0 100 5.469 2.735 2.735 0 000-5.47zM880.234 35a2.737 2.737 0 01-1.688 2.526 2.731 2.731 0 01-2.979-.593A2.735 2.735 0 11880.234 35zm32.266-2.734a2.735 2.735 0 100 5.469 2.735 2.735 0 000-5.47zm-17.5 0a2.735 2.735 0 100 5.469 2.735 2.735 0 000-5.47zM825.234 35a2.737 2.737 0 01-1.688 2.526 2.731 2.731 0 01-2.979-.593A2.735 2.735 0 11825.234 35zm32.266-2.734a2.735 2.735 0 100 5.469 2.735 2.735 0 000-5.47zm-17.5 0a2.735 2.735 0 100 5.469 2.735 2.735 0 000-5.47zM772.234 35a2.737 2.737 0 01-1.688 2.526 2.731 2.731 0 01-2.979-.593A2.735 2.735 0 11772.234 35zm32.266-2.734a2.735 2.735 0 100 5.469 2.735 2.735 0 000-5.47zm-17.5 0a2.735 2.735 0 100 5.469 2.735 2.735 0 000-5.47zM717.234 35a2.737 2.737 0 01-1.688 2.526 2.731 2.731 0 01-2.979-.593A2.735 2.735 0 11717.234 35zm32.266-2.734a2.735 2.735 0 100 5.469 2.735 2.735 0 000-5.47zm-17.5 0a2.735 2.735 0 100 5.469 2.735 2.735 0 000-5.47zM664.234 35a2.737 2.737 0 01-1.688 2.526 2.731 2.731 0 01-2.979-.593A2.735 2.735 0 11664.234 35zm32.266-2.734a2.735 2.735 0 100 5.469 2.735 2.735 0 000-5.47zm-17.5 0a2.735 2.735 0 100 5.469 2.735 2.735 0 000-5.47zM609.234 35a2.737 2.737 0 01-1.688 2.526 2.731 2.731 0 01-2.979-.593A2.735 2.735 0 11609.234 35zm32.266-2.734a2.735 2.735 0 100 5.469 2.735 2.735 0 000-5.47zm-17.5 0a2.735 2.735 0 100 5.469 2.735 2.735 0 000-5.47zM556.234 35a2.737 2.737 0 01-1.688 2.526 2.731 2.731 0 01-2.979-.593A2.735 2.735 0 11556.234 35zm32.266-2.734a2.735 2.735 0 100 5.469 2.735 2.735 0 000-5.47zm-17.5 0a2.735 2.735 0 100 5.469 2.735 2.735 0 000-5.47zM501.234 35a2.737 2.737 0 01-1.688 2.526 2.731 2.731 0 01-2.979-.593A2.735 2.735 0 11501.234 35zm32.266-2.734a2.735 2.735 0 100 5.469 2.735 2.735 0 000-5.47zm-17.5 0a2.735 2.735 0 100 5.469 2.735 2.735 0 000-5.47zM448.234 35a2.737 2.737 0 01-1.688 2.526 2.731 2.731 0 01-2.979-.593A2.735 2.735 0 11448.234 35zm32.266-2.734a2.735 2.735 0 100 5.469 2.735 2.735 0 000-5.47zm-17.5 0a2.735 2.735 0 100 5.469 2.735 2.735 0 000-5.47zM393.234 35a2.737 2.737 0 01-1.688 2.526 2.731 2.731 0 01-2.979-.593A2.735 2.735 0 11393.234 35zm32.266-2.734a2.735 2.735 0 100 5.469 2.735 2.735 0 000-5.47zm-17.5 0a2.735 2.735 0 100 5.469 2.735 2.735 0 000-5.47zM340.234 35a2.737 2.737 0 01-1.688 2.526 2.731 2.731 0 01-2.979-.593A2.735 2.735 0 11340.234 35zm32.266-2.734a2.735 2.735 0 100 5.469 2.735 2.735 0 000-5.47zm-17.5 0a2.735 2.735 0 100 5.469 2.735 2.735 0 000-5.47zM285.234 35a2.737 2.737 0 01-1.688 2.526 2.731 2.731 0 01-2.979-.593A2.735 2.735 0 11285.234 35zm32.266-2.734a2.735 2.735 0 100 5.469 2.735 2.735 0 000-5.47zm-17.5 0a2.735 2.735 0 100 5.469 2.735 2.735 0 000-5.47zM232.234 35a2.737 2.737 0 01-1.688 2.526 2.731 2.731 0 01-2.979-.593A2.735 2.735 0 11232.234 35zm32.266-2.734a2.735 2.735 0 100 5.469 2.735 2.735 0 000-5.47zm-17.5 0a2.735 2.735 0 100 5.469 2.735 2.735 0 000-5.47zM177.234 35a2.737 2.737 0 01-1.688 2.526 2.731 2.731 0 01-2.979-.593A2.735 2.735 0 11177.234 35zm32.266-2.734a2.735 2.735 0 100 5.469 2.735 2.735 0 000-5.47zm-17.5 0a2.735 2.735 0 100 5.469 2.735 2.735 0 000-5.47zM124.234 35a2.737 2.737 0 01-1.688 2.526 2.731 2.731 0 01-2.979-.593A2.735 2.735 0 11124.234 35zm32.266-2.734a2.735 2.735 0 100 5.469 2.735 2.735 0 000-5.47zm-17.5 0a2.735 2.735 0 100 5.469 2.735 2.735 0 000-5.47zM69.234 35a2.735 2.735 0 11-5.469 0 2.735 2.735 0 015.47 0zm32.266-2.734a2.735 2.735 0 100 5.47 2.735 2.735 0 000-5.47zm-17.5 0a2.735 2.735 0 100 5.469 2.735 2.735 0 000-5.47zM16.234 35a2.735 2.735 0 11-5.469 0 2.735 2.735 0 015.47 0zM48.5 32.266a2.735 2.735 0 100 5.469 2.735 2.735 0 000-5.47zm-17.5 0a2.735 2.735 0 100 5.469 2.735 2.735 0 000-5.47z" fill="#2C3E50"/></svg>