<svg width="120" height="120" fill="none" xmlns="http://www.w3.org/2000/svg"><circle cx="60" cy="60" r="60" fill="#000"/><path d="M88.875 35h-57.75a4.104 4.104 0 00-2.917 1.22A4.188 4.188 0 0027 39.167v41.666c0 1.105.435 2.165 1.208 2.947A4.104 4.104 0 0031.125 85h57.75a4.104 4.104 0 002.917-1.22A4.188 4.188 0 0093 80.833V39.167a4.188 4.188 0 00-1.208-2.947A4.104 4.104 0 0088.875 35zm-3.176 45.833h-51.15L48.986 65.75l-2.97-2.896-14.891 15.563V42.333l25.637 25.771a4.104 4.104 0 002.908 1.212c1.09 0 2.135-.436 2.908-1.212l26.297-26.416v36.458l-15.18-15.334-2.908 2.938 14.912 15.083zM33.827 39.167h51.707L59.67 65.146l-25.843-25.98z" fill="#fff"/></svg>