<svg width="120" height="120" fill="none" xmlns="http://www.w3.org/2000/svg"><path d="M60 0C26.862 0 0 26.863 0 60c0 33.138 26.863 60 60 60 33.138 0 60-26.862 60-60 0-33.138-26.862-60-60-60zM45.312 84.869h-12.15v-39.1h12.15v39.1zm-6.15-43.9c-3.837 0-6.318-2.719-6.318-6.081 0-3.432 2.556-6.07 6.475-6.07 3.918 0 6.319 2.638 6.393 6.07 0 3.362-2.475 6.08-6.55 6.08zm50.526 43.9h-12.15V63.2c0-5.044-1.763-8.469-6.157-8.469-3.356 0-5.35 2.319-6.231 4.55-.325.794-.406 1.919-.406 3.038v22.543H52.587V58.239c0-4.882-.156-8.963-.318-12.475h10.556l.556 5.43h.244c1.6-2.55 5.519-6.312 12.075-6.312 7.994 0 13.987 5.356 13.987 16.869V84.87z" fill="#000"/></svg>