<svg width="37" height="38" fill="none" xmlns="http://www.w3.org/2000/svg"><path d="M13.792 19.506l8.668 6.37c.186.136.447 0 .447-.233v-1.678c0-.365-.173-.712-.465-.927l-5.123-3.764 5.123-3.765c.292-.214.465-.558.465-.927v-1.678c0-.232-.26-.368-.447-.232l-8.668 6.37a.288.288 0 00-.085.362c.02.04.05.076.085.102z" fill="#000"/><path d="M31.927 4.96H5.995c-.623 0-1.127.512-1.127 1.145v26.337c0 .634.504 1.145 1.127 1.145h25.932c.623 0 1.127-.511 1.127-1.145V6.105c0-.633-.504-1.145-1.128-1.145zm-1.41 26.051H7.405V7.537h23.112V31.01z" fill="#000"/></svg>