<svg width="36" height="39" fill="none" xmlns="http://www.w3.org/2000/svg"><path d="M20.52 0c-.822 0-1.525.312-2.107.936-.581.625-.871 1.377-.871 2.257 0 .851.29 1.588.871 2.213.582.624 1.285.937 2.107.937.795 0 1.483-.313 2.065-.937a3.137 3.137 0 00.873-2.213c0-.88-.291-1.632-.873-2.257C22.003.312 21.315 0 20.52 0zm6.382 6.088c.085.482.128 1.12.128 1.915v1.66h-2.085v4.128a10.664 10.664 0 011.447-.126l.638.041v.085h-.042v7.62c0 2.384.299 4.13.895 5.236.794 1.476 2.227 2.213 4.299 2.213 1.475 0 2.738-.283 3.788-.851v-4.257a4.144 4.144 0 01-2.384.724c-1.249 0-1.872-.951-1.872-2.853v-7.917h1.83c.34 0 .702.014 1.085.042.384.029.645.043.787.043V9.66h-3.702V7.918c0-.68.043-1.29.128-1.83h-4.94zM7.41 9.449c-1.93 0-3.59.64-4.98 1.917C.982 12.728.258 14.43.258 16.473c0 1.362.397 2.64 1.191 3.831.71 1.107 1.519 1.817 2.427 2.13v.084c-.908.397-1.362 1.391-1.362 2.98 0 1.22.482 2.128 1.447 2.724v.085c-2.639.88-3.959 2.51-3.959 4.895 0 2.071.88 3.59 2.64 4.555 1.39.767 3.164 1.15 5.32 1.15 5.25 0 7.875-2.2 7.875-6.599 0-2.753-2.029-4.441-6.087-5.065-.937-.142-1.645-.482-2.128-1.021-.369-.37-.553-.74-.553-1.108 0-1.05.567-1.66 1.702-1.83 1.73-.255 3.143-1.057 4.236-2.405 1.092-1.348 1.639-2.93 1.639-4.746 0-.568-.114-1.177-.34-1.83.737-.17 1.304-.326 1.702-.468V9.449c-1.788.681-3.363 1.023-4.725 1.023a7.678 7.678 0 00-3.874-1.023zm10.686.213c.057.51.085 1.434.085 2.767v13.24c0 1.362-.028 2.326-.085 2.893h4.81c-.057-.652-.085-1.703-.085-3.15V12.344c0-1.248.028-2.143.085-2.682h-4.81zM7.579 13.366c.852 0 1.518.327 2 .98.398.596.596 1.304.596 2.127 0 1.987-.865 2.98-2.596 2.98-1.787 0-2.682-.98-2.682-2.937 0-2.1.895-3.15 2.682-3.15zm.298 17.325c2.384 0 3.576.723 3.576 2.17 0 1.533-1.093 2.3-3.278 2.3-2.497 0-3.746-.74-3.746-2.215 0-1.504 1.15-2.255 3.448-2.255z" fill="#fff"/></svg>