<svg width="40" height="40" fill="none" xmlns="http://www.w3.org/2000/svg"><path d="M28.72 24c.16-1.32.28-2.64.28-4 0-1.36-.12-2.68-.28-4h6.76c.32 1.28.52 2.62.52 4s-.2 2.72-.52 4h-6.76zm-3.54 11.12c1.2-2.22 2.12-4.62 2.76-7.12h5.9a16.06 16.06 0 01-8.66 7.12zM24.68 24h-9.36c-.2-1.32-.32-2.64-.32-4 0-1.36.12-2.7.32-4h9.36c.18 1.3.32 2.64.32 4 0 1.36-.14 2.68-.32 4zM20 35.92c-1.66-2.4-3-5.06-3.82-7.92h7.64c-.82 2.86-2.16 5.52-3.82 7.92zM12 12H6.16a15.846 15.846 0 018.64-7.12C13.6 7.1 12.7 9.5 12 12zM6.16 28H12c.7 2.5 1.6 4.9 2.8 7.12A16.016 16.016 0 016.16 28zm-1.64-4C4.2 22.72 4 21.38 4 20s.2-2.72.52-4h6.76c-.16 1.32-.28 2.64-.28 4 0 1.36.12 2.68.28 4H4.52zM20 4.06c1.66 2.4 3 5.08 3.82 7.94h-7.64C17 9.14 18.34 6.46 20 4.06zM33.84 12h-5.9a31.304 31.304 0 00-2.76-7.12c3.68 1.26 6.74 3.8 8.66 7.12zM20 0C8.94 0 0 9 0 20A20 20 0 1020 0z" fill="#fff"/></svg>