<svg width="118" height="118" fill="none" xmlns="http://www.w3.org/2000/svg"><path d="M59 .875C26.889.875.875 26.892.875 59c0 32.108 26.017 58.125 58.125 58.125 32.111 0 58.125-26.017 58.125-58.125C117.125 26.892 91.108.875 59 .875zm28.549 39.821l-9.54 44.955c-.705 3.188-2.603 3.96-5.25 2.46l-14.532-10.71-7.008 6.75c-.773.773-1.429 1.429-2.929 1.429l1.031-14.79L76.25 46.46c1.174-1.031-.259-1.616-1.808-.585l-33.28 20.951-14.345-4.477c-3.116-.983-3.187-3.116.657-4.616l56.04-21.612c2.602-.937 4.875.634 4.031 4.572l.004.003z" fill="#000"/></svg>